<svg xmlns="http://www.w3.org/2000/svg" xmlns:xlink="http://www.w3.org/1999/xlink" viewBox="0 0 1653.27 1588.6"><defs><style>.cls-1{fill:url(#linear-gradient);}.cls-2{fill:none;clip-rule:evenodd;}.cls-3{clip-path:url(#clip-path);}.cls-4{fill:url(#linear-gradient-2);}.cls-5{clip-path:url(#clip-path-2);}.cls-6{fill:url(#linear-gradient-3);}.cls-7{clip-path:url(#clip-path-3);}.cls-8{fill:url(#linear-gradient-4);}.cls-9{clip-path:url(#clip-path-4);}.cls-10{fill:url(#linear-gradient-5);}.cls-11{mask:url(#mask);}.cls-12{fill:#ebf855;fill-rule:evenodd;}</style><linearGradient id="linear-gradient" x1="-2599.56" y1="2572.67" x2="-2608.82" y2="3045.49" gradientTransform="translate(3428.91 -2129.94)" gradientUnits="userSpaceOnUse"><stop offset="0" stop-color="#fff"/><stop offset="1"/></linearGradient><clipPath id="clip-path" transform="translate(0 9.13)"><path class="cls-2" d="M197.26,458,732.8,232.74c51.65-21.73,153-14.63,225.29,15.76L1456.15,458l167.79-70.57c17.3-7.27,26.91-16.89,29.33-27.61V348.53c-4-18.64-27-39.12-66.8-55.88L958.09,28.36C885.83-2,784.45-9.13,732.8,12.6L29.47,308.41C11.83,315.83,2.18,325.69,0,336.67v9.93c3.54,18.83,26.61,39.61,67,56.57Z"/></clipPath><linearGradient id="linear-gradient-2" x1="826.64" y1="-35.05" x2="826.64" y2="364.83" gradientUnits="userSpaceOnUse"><stop offset="0" stop-color="#009a8f"/><stop offset="1" stop-color="#005b50"/></linearGradient><clipPath id="clip-path-2" transform="translate(0 9.13)"><path class="cls-2" d="M920.61,683.23C869,705,767.58,697.86,695.32,667.47L197.26,458,67,403.17C26.61,386.21,3.54,365.43,0,346.6V566.74c3.54,18.83,26.61,39.61,67,56.58L695.32,887.61C767.58,918,869,925.1,920.61,903.37l703.33-295.82c17.3-7.27,26.91-16.89,29.33-27.6V359.8c-2.42,10.72-12,20.34-29.33,27.61Z"/></clipPath><linearGradient id="linear-gradient-3" x1="827.47" y1="924.86" x2="825.43" y2="238.13" gradientUnits="userSpaceOnUse"><stop offset="0" stop-color="#007b70"/><stop offset="1" stop-color="#ebf855"/></linearGradient><clipPath id="clip-path-3" transform="translate(0 9.13)"><path class="cls-2" d="M920.61,998.3c-51.64,21.72-153,14.63-225.29-15.77L197.26,773.05,67,718.24C26.61,701.28,3.54,680.5,0,661.67V881.81c3.54,18.83,26.61,39.61,67,56.57l628.37,264.3c72.26,30.39,173.65,37.48,225.29,15.76l703.33-295.82c17.3-7.27,26.91-16.89,29.33-27.61V674.87c-2.42,10.72-12,20.33-29.33,27.61Z"/></clipPath><linearGradient id="linear-gradient-4" x1="827.47" y1="1239.94" x2="825.43" y2="553.18" xlink:href="#linear-gradient-3"/><clipPath id="clip-path-4" transform="translate(0 9.13)"><path class="cls-2" d="M920.61,1337.6c-51.64,21.73-153,14.63-225.29-15.76L197.26,1112.36,67,1057.54C26.61,1040.58,3.54,1019.8,0,1001v220.15c3.54,18.82,26.61,39.6,67,56.57L695.32,1542c72.26,30.4,173.65,37.49,225.29,15.77l703.33-295.82c17.3-7.28,26.91-16.89,29.33-27.61V1014.17c-2.42,10.72-12,20.34-29.33,27.61Z"/></clipPath><linearGradient id="linear-gradient-5" x1="827.47" y1="1579.22" x2="825.43" y2="892.49" xlink:href="#linear-gradient-3"/><mask id="mask" x="0" y="355.73" width="1653.27" height="469.49" maskUnits="userSpaceOnUse"><g transform="translate(0 9.13)"><rect class="cls-1" y="346.6" width="1653.27" height="469.49"/></g></mask></defs><g id="Layer_2" data-name="Layer 2"><g id="Layer_1-2" data-name="Layer 1"><g class="cls-3"><rect class="cls-4" width="1653.27" height="467.11"/></g><g class="cls-5"><rect class="cls-6" y="355.73" width="1653.27" height="578.5"/></g><g class="cls-7"><rect class="cls-8" y="670.8" width="1653.27" height="578.5"/></g><g class="cls-9"><rect class="cls-10" y="1010.1" width="1653.27" height="578.5"/></g><g class="cls-11"><path class="cls-12" d="M695.32,787.73c72.26,30.39,173.65,37.49,225.29,15.76l703.33-295.82c17.3-7.27,26.91-16.89,29.33-27.6V359.8c-2.42,10.72-12,20.34-29.33,27.61L1456.15,458,920.61,683.23C869,705,767.58,697.86,695.32,667.47L197.26,458,67,403.17C26.61,386.21,3.54,365.43,0,346.6V466.86c3.54,18.83,26.61,39.61,67,56.58l130.31,54.81Z" transform="translate(0 9.13)"/></g></g></g></svg>